<svg xmlns="http://www.w3.org/2000/svg" viewBox="0 0 81.8 22.6"><defs><style>.cls-1{fill:#020126;}</style></defs><g id="レイヤー_2" data-name="レイヤー 2"><g id="レイヤー_1-2" data-name="レイヤー 1"><g id="cream"><path class="cls-1" d="M11.59,12.26c0-4.55-1.25-5.89-5.18-5.89a10.39,10.39,0,0,0-2.74.48l0-.07A1.9,1.9,0,0,0,0,7.56,1.92,1.92,0,0,0,.92,9.19l.17.09V19a1.82,1.82,0,0,0-.73.61A1.89,1.89,0,0,0,0,20.69a1.91,1.91,0,1,0,3.81,0,2,2,0,0,0-.35-1.11,2.13,2.13,0,0,0-.29-.31V9a2.8,2.8,0,0,0,.28-.31,10.06,10.06,0,0,1,2.87-.43c2.74,0,3.19,1.13,3.19,4.16v9.47h4.1V20.15h-2Z"/><path class="cls-1" d="M20.92,6.37c-4.7,0-5.74,2.71-5.74,6V16.1c0,3.46,1.28,6,5.74,6s5.69-2.58,5.75-6V12.41C26.67,9.05,25.57,6.37,20.92,6.37Zm3.66,9.76c0,3.22-1.34,4.14-3.66,4.14s-3.63-.83-3.66-4.17V12.38c0-3.15,1.22-4.13,3.66-4.13s3.63.86,3.66,4.13Z"/><path class="cls-1" d="M43.88,6.37c-3.27,0-5.69,1.58-5.69,8,0,5.32,1.14,7.82,6.22,7.82a14.15,14.15,0,0,0,3.46-.44V19.88a13.27,13.27,0,0,1-3.46.39c-3,0-4.07-1.52-4.13-5.59h8.51c.06-.84.09-1.67.09-2.3C48.88,7.65,46.83,6.37,43.88,6.37Zm3,6.67H40.31c.21-3.54,1.34-4.79,3.57-4.79,1.84,0,3,.92,3,3.87Z"/><polygon class="cls-1" points="59.56 6.12 57.48 6.12 57.48 20.09 55.31 20.09 55.31 21.88 61.76 21.88 61.76 20.09 59.56 20.09 59.56 6.12"/><path class="cls-1" d="M30.31,6.64h-2V8.36h2v9.06l0,4.45h5V20.15H32.34V12.26l0-3.89h4.57V6.64H30.31Z"/><circle class="cls-1" cx="31.34" cy="3.85" r="1.71"/><path class="cls-1" d="M58.44,3.43a1.72,1.72,0,1,0-1.71-1.72A1.72,1.72,0,0,0,58.44,3.43Z"/><path class="cls-1" d="M80.09,0A1.71,1.71,0,0,0,78.7.71H68.25a1.72,1.72,0,1,0,.07,1.9h4.57V20.09H70.72v1.79h6.43V20.09H75V2.62h3.65A1.71,1.71,0,1,0,80.09,0Z"/></g></g></g></svg>