<?xml version="1.0" encoding="utf-8"?>
<!-- Generator: Adobe Illustrator 25.3.1, SVG Export Plug-In . SVG Version: 6.00 Build 0)  -->
<svg version="1.1" id="レイヤー_1" xmlns="http://www.w3.org/2000/svg" xmlns:xlink="http://www.w3.org/1999/xlink" x="0px"
	 y="0px" viewBox="0 0 159.5 174.9" style="enable-background:new 0 0 159.5 174.9;" xml:space="preserve">
<style type="text/css">
	.st0{fill:#FFF;}
</style>
<path class="st0" d="M154.5,19.7h-38.7c-3.2,0-10.6-8.5-11.2-15.1c-0.2-2.6-2.4-4.5-5-4.5h-0.3H60.2h-0.3c-2.6,0-4.7,2-5,4.5
	c-0.6,6.7-8,15.1-11.2,15.1H5c-2.8,0-5,2.2-5,5s2.2,5,5,5h149.5c2.8,0,5-2.2,5-5S157.2,19.7,154.5,19.7z M63.9,10h31.8
	c1,3.2,2.7,6.6,5,9.7H58.9C61.1,16.6,62.9,13.2,63.9,10z"/>
<path class="st0" d="M50.9,131.5c-2.7,0-5-2.2-5-5l-0.4-73c0-2.8,2.2-5,5-5c0,0,0,0,0,0c2.7,0,5,2.2,5,5l0.4,73
	C55.9,129.3,53.6,131.5,50.9,131.5C50.9,131.5,50.9,131.5,50.9,131.5z"/>
<path class="st0" d="M108.6,131.5C108.6,131.5,108.6,131.5,108.6,131.5c-2.8,0-5-2.3-5-5l0.4-73c0-2.8,2.3-5,5-5c0,0,0,0,0,0
	c2.8,0,5,2.3,5,5l-0.4,73C113.6,129.3,111.4,131.5,108.6,131.5z"/>
<path class="st0" d="M138.8,37.7c-2.8-0.2-5.1,1.9-5.3,4.6l-8,117.6H34L26,42.3c-0.2-2.8-2.6-4.8-5.3-4.6c-2.8,0.2-4.8,2.6-4.6,5.3
	l8.6,127.3c0.2,2.6,2.4,4.7,5,4.7c0.1,0,0.2,0,0.3,0c2.7-0.2,4.7-2.4,4.6-5h90.3c0,2.6,2,4.9,4.6,5c0.1,0,0.2,0,0.3,0
	c2.6,0,4.8-2,5-4.7L143.5,43C143.7,40.2,141.6,37.8,138.8,37.7z"/>
<path class="st0" d="M80,131.5c-2.7,0-5-2.2-5-5l-0.4-73c0-2.8,2.2-5,5-5c0,0,0,0,0,0c2.7,0,5,2.2,5,5l0.4,73
	C85,129.3,82.8,131.5,80,131.5C80,131.5,80,131.5,80,131.5z"/>
</svg>
