<?xml version="1.0" encoding="utf-8"?>
<!-- Generator: Adobe Illustrator 25.3.1, SVG Export Plug-In . SVG Version: 6.00 Build 0)  -->
<svg version="1.1" xmlns="http://www.w3.org/2000/svg" xmlns:xlink="http://www.w3.org/1999/xlink" x="0px" y="0px"
	 viewBox="0 0 164.6 164.6" style="enable-background:new 0 0 164.6 164.6;" xml:space="preserve">
<style type="text/css">
	.st0{fill:#59BEC9;}
</style>
<g id="paper">
</g>
<g id="pen">
	<path class="st0" d="M109.7,164.6H14c-7.7,0-14-6.3-14-14V54.9c0-7.7,6.3-14,14-14h47.9c2.8,0,5,2.2,5,5s-2.2,5-5,5H14
		c-2.2,0-4,1.8-4,4v95.7c0,2.2,1.8,4,4,4h95.7c2.2,0,4-1.8,4-4v-45.2c0-2.8,2.2-5,5-5s5,2.2,5,5v45.2
		C123.6,158.3,117.4,164.6,109.7,164.6z"/>
	<path class="st0" d="M61.8,107.8c-1.3,0-2.6-0.5-3.5-1.5c-1.4-1.4-1.8-3.4-1.2-5.2L65,78.9c0.2-0.7,0.6-1.3,1.2-1.9l75-75
		c2.8-2.8,7.2-2.8,10,0l11.4,11.4c1.3,1.3,2.1,3.1,2.1,5c0,1.9-0.7,3.7-2.1,5l-75,75c-0.5,0.5-1.2,0.9-1.9,1.2l-22.2,7.9
		C63,107.7,62.4,107.8,61.8,107.8z M74.1,83.3l-4,11.2l11.2-4l72.1-72.1l-7.2-7.2L74.1,83.3z"/>
</g>
<g id="circle">
</g>
</svg>
